PathFileType	4	(X/Y/Z)	C:\Users\WrightLab\Desktop\Jo\P2_Trial10.trc
DataRate	CameraRate	NumFrames	NumMarkers	Units	OrigDataRate	OrigDataStartFrame	OrigNumFrames
100.00	100.00	       13	19	mm	100.00	628	       837
Frame#	Time	Headset_Front			Headset_Back			Headset_Left			Headset_Right			Left_Shoulder			Right_Shoulder			Sternum			C7			Left Elbow			Right Elbow			Left Wrist			Right Wrist			Left ASIS			Right ASIS			S2			Left Knee			Right Knee			Left Ankle			Right Ankle			
		X1	Y1	Z1	X2	Y2	Z2	X3	Y3	Z3	X4	Y4	Z4	X5	Y5	Z5	X6	Y6	Z6	X7	Y7	Z7	X8	Y8	Z8	X9	Y9	Z9	X10	Y10	Z10	X11	Y11	Z11	X12	Y12	Z12	X13	Y13	Z13	X14	Y14	Z14	X15	Y15	Z15	X16	Y16	Z16	X17	Y17	Z17	X18	Y18	Z18	X19	Y19	Z19	

628	6.270	189.31770	1466.32886	1334.87732	238.95546	1704.77942	1145.62158	328.23386	1583.04553	1227.24915	101.32524	1560.57861	1256.70496	361.01639	1478.81812	1045.89172	43.70686	1473.85913	1134.54199	219.58000	1354.28455	1154.59705	165.10829	1466.91724	991.80383	466.01068	1131.92212	992.71448	-73.83261	1164.00818	1040.32202	502.35974	908.89478	971.98187	-143.45302	926.74615	1015.72009	279.47937	1065.11060	1150.91370	156.21718	1046.93213	1183.15234	150.77670	975.66241	917.84100	403.51059	502.51144	1002.90137	93.72193	577.40448	1177.79749	321.39774	288.07990	775.76239	229.41435	162.03026	1198.29871	
629	6.280	188.76564	1467.09595	1342.89868	239.43590	1706.05774	1154.74951	328.11935	1585.07056	1237.17834	99.42110	1562.28613	1264.65601	363.61981	1480.19006	1055.03406	45.51862	1475.18994	1140.58508	220.85286	1354.97449	1162.49792	167.84756	1468.43750	999.61139	468.22757	1133.10779	1001.33972	-71.85113	1165.30920	1047.15735	502.09979	909.78607	979.63196	-143.14767	928.69586	1025.86536	281.18488	1067.21521	1159.88574	156.51106	1049.18042	1194.67346	155.96257	977.70984	924.73450	416.29132	502.70044	1027.57251	91.25525	577.89246	1179.23828	336.58786	292.93253	795.44275	226.65643	162.27275	1196.35486	
630	6.290	187.37859	1467.39221	1349.95386	239.25926	1707.99585	1163.84448	328.68091	1586.58057	1246.82861	99.83378	1563.03479	1271.66785	365.89755	1481.68909	1064.76038	46.63430	1477.36816	1146.83521	221.57889	1356.51965	1170.07056	170.78888	1470.16626	1007.27771	470.45230	1134.45398	1010.27228	-70.91105	1167.26904	1054.02954	503.69662	910.83264	988.18414	-142.63795	930.76813	1036.85156	281.51355	1068.38672	1169.84106	156.40878	1051.15125	1202.28491	161.13289	979.49030	931.55554	428.40735	502.68353	1052.22229	89.21543	578.41644	1180.77161	352.10361	297.21097	816.83630	222.15549	162.41649	1193.88965	
631	6.300	186.58099	1468.49048	1357.75574	239.00760	1709.83594	1172.94543	327.81116	1587.83069	1255.23853	99.46346	1563.64966	1279.16760	368.25082	1482.71338	1073.88660	48.05146	1478.96594	1152.94263	222.16472	1357.89246	1177.59106	173.40240	1471.12439	1014.96558	472.74384	1135.93665	1018.50610	-70.13838	1168.89307	1061.16541	505.77899	911.16241	995.69934	-141.84508	932.86749	1047.48303	281.78287	1070.44946	1178.60742	156.26411	1053.07898	1209.89673	166.38693	981.56653	938.61877	439.93658	502.23294	1078.11096	86.06008	579.03320	1180.51404	368.13071	300.71014	836.95667	218.45111	162.66570	1191.26135	
632	6.310	185.74283	1470.02087	1366.73083	239.90883	1710.53491	1180.84326	326.37408	1589.13208	1263.63281	98.87080	1564.68982	1286.49927	369.85150	1483.79187	1084.02222	49.35195	1480.76807	1159.51782	223.01231	1358.75195	1185.53442	176.27020	1472.21216	1022.73602	475.29669	1137.21570	1027.40723	-68.76214	1170.56335	1068.31494	507.62814	912.26404	1005.05249	-141.35605	934.82007	1058.54370	282.03696	1071.95215	1188.18298	156.62564	1054.41003	1216.88647	171.42001	983.54871	945.42126	451.21240	502.66058	1105.32556	83.07376	578.19385	1180.23242	383.62601	304.17987	859.67761	213.94142	162.88972	1189.65222	
633	6.320	185.07712	1470.71570	1374.32202	238.87648	1712.23657	1189.46289	327.51349	1591.62195	1273.96729	98.97650	1565.18115	1293.60352	371.63147	1485.04431	1094.33008	50.64291	1482.40918	1165.72522	224.25006	1359.84192	1193.35522	178.72279	1473.36694	1030.59363	477.63382	1138.49084	1036.61658	-67.89235	1171.74609	1076.03992	510.83005	913.47968	1012.71967	-141.04839	936.71967	1069.80762	282.18185	1073.76477	1197.48706	156.71696	1055.92725	1224.25891	177.26086	984.60834	952.64697	460.70544	501.98279	1133.90479	80.13380	577.61670	1180.05859	399.67206	306.65439	883.44202	209.69247	162.87242	1187.75366	
634	6.330	184.45271	1472.10474	1382.76746	239.76938	1713.13525	1197.54199	327.48380	1592.72729	1283.73010	98.03496	1566.21741	1301.08337	372.71002	1485.09583	1102.63391	51.72396	1483.54578	1171.92139	223.98169	1361.42957	1201.52100	180.31924	1474.95447	1037.31494	480.11887	1139.77209	1044.81714	-67.05698	1173.13037	1083.59033	513.74365	915.22565	1021.07642	-140.41023	938.58136	1081.33337	282.75858	1074.54272	1206.54260	155.72089	1057.28992	1231.53149	183.00429	985.33435	960.25372	468.17990	501.69656	1162.22644	77.56239	576.09546	1178.99963	415.50000	308.87369	908.26941	204.95139	162.35246	1186.99194	
635	6.340	183.47800	1473.08032	1391.23596	239.51018	1714.23413	1206.10522	326.31076	1593.98865	1292.40100	97.71430	1566.84497	1308.16028	374.05197	1485.86108	1112.44861	52.63530	1484.82825	1178.73413	224.54097	1362.15466	1209.52625	182.95961	1475.41467	1045.05103	482.56424	1140.96143	1054.52673	-66.49146	1173.91650	1091.75330	517.19006	916.31757	1030.13391	-139.87772	940.21106	1092.62476	282.32813	1076.13330	1216.67725	155.32307	1058.52954	1238.58069	188.56903	986.30225	967.51550	473.53046	505.88342	1190.10107	73.66132	574.54358	1177.69861	430.35361	311.28638	933.71118	200.11264	161.14879	1186.35803	
636	6.350	182.82323	1474.22827	1399.03833	239.72704	1715.08105	1213.79211	325.82153	1595.13818	1301.09070	96.56960	1567.50232	1315.78491	375.68146	1487.09985	1122.74731	53.42335	1485.72083	1185.81213	225.02261	1363.06287	1217.72192	185.33597	1475.49170	1054.42676	485.11783	1142.36523	1063.94824	-65.68520	1174.64453	1100.26746	520.06451	918.69781	1039.53979	-139.49045	941.26569	1104.43213	282.11737	1077.91309	1226.09314	154.87909	1059.31970	1245.31738	193.91667	987.04633	974.96527	477.42984	512.48077	1215.97827	70.66153	572.53833	1176.24341	445.19687	313.16010	960.47552	195.58180	159.33060	1186.33325	
637	6.360	181.52812	1475.09302	1407.82642	238.64745	1715.59253	1222.28088	325.95187	1596.79480	1310.91956	96.68917	1568.10840	1323.19434	376.97321	1487.28711	1132.34778	54.09215	1486.78430	1192.24854	224.93039	1363.81042	1226.38123	186.94637	1476.12354	1061.14941	488.08142	1143.43250	1073.36877	-64.87309	1175.11475	1108.22510	524.05176	917.87067	1045.99878	-139.08878	942.41156	1116.27429	281.91577	1078.12109	1235.06250	153.79858	1060.09155	1252.24585	199.60426	987.50781	982.58649	479.33041	519.70801	1240.42578	66.58266	570.82764	1174.19983	459.57700	314.19473	988.68054	191.47122	157.02924	1186.30139	
638	6.370	181.17410	1475.87756	1416.32861	239.46915	1715.96521	1230.03198	325.78973	1597.81592	1320.06250	95.50642	1568.42456	1331.03601	378.27786	1488.36487	1142.48499	54.42200	1487.13318	1199.07043	226.25459	1364.05591	1234.74573	189.23918	1476.06458	1070.43127	490.52707	1144.84314	1082.47803	-64.34562	1175.46252	1116.52100	527.49774	918.59955	1053.88086	-138.79625	943.53857	1128.70581	281.20554	1078.45898	1244.85327	153.71053	1059.86279	1258.76611	205.92542	987.78967	990.75891	480.84512	526.24152	1263.50659	63.15241	568.74792	1171.89075	472.38968	314.74548	1017.50586	187.14558	153.95961	1186.54456	
639	6.380	179.83087	1476.61487	1424.68079	239.07594	1716.49500	1238.89636	324.49176	1598.85229	1328.98816	95.72507	1568.55713	1338.63184	379.47382	1488.72510	1152.78674	55.54628	1487.69141	1205.61536	226.28134	1364.92273	1243.15723	190.62241	1477.30994	1077.50159	493.37405	1146.23987	1092.72546	-63.49696	1174.99915	1124.97986	531.62756	920.69543	1062.50293	-138.07846	944.50262	1140.38330	280.69138	1078.89014	1254.37817	152.83113	1060.30530	1265.38232	212.86620	988.32880	998.42804	480.99567	531.78998	1285.34851	60.08235	566.64313	1168.97290	484.95914	314.16312	1045.53662	182.69524	150.75015	1187.04065	
640	6.390	179.30971	1477.08801	1433.48096	237.80817	1717.45239	1247.68665	323.85718	1598.81262	1337.94641	94.47479	1568.57654	1344.67847	379.84897	1488.75525	1161.62866	56.31313	1488.28442	1212.04016	225.96211	1365.18225	1251.29761	192.62003	1477.62549	1085.78137	496.23834	1146.83606	1102.32080	-62.82591	1175.07764	1133.65210	536.54932	921.18579	1071.52502	-138.03972	945.01013	1153.04614	280.02634	1079.04346	1264.22974	151.15828	1060.70935	1272.08264	219.03406	988.69305	1006.36908	479.27945	536.43646	1307.09167	57.49284	565.41895	1165.98657	498.26312	313.09122	1074.98206	178.06061	147.20651	1187.95410	
